<?xml version="1.0" encoding="UTF-8" standalone="no"?>
<!DOCTYPE svg PUBLIC "-//W3C//DTD SVG 1.1//EN" "http://www.w3.org/Graphics/SVG/1.1/DTD/svg11.dtd">
<svg width="100%" height="100%" viewBox="0 0 807 213" version="1.1" xmlns="http://www.w3.org/2000/svg" xmlns:xlink="http://www.w3.org/1999/xlink" xml:space="preserve" xmlns:serif="http://www.serif.com/" style="fill-rule:evenodd;clip-rule:evenodd;stroke-linejoin:round;stroke-miterlimit:2;">
    <g transform="matrix(1,0,0,1,-6263.17,-3173.71)">
        <g transform="matrix(1,0,0,1,2845.13,0)">
            <g transform="matrix(1,0,0,1,0,388.569)">
                <g transform="matrix(0.899612,0,0,0.899612,443.178,1784.19)">
                    <path d="M3306.83,1112.65L3448.56,1112.65C3500.71,1112.65 3543.05,1154.99 3543.05,1207.14C3543.05,1234.55 3531.35,1259.26 3512.67,1276.52L3543.05,1348.87L3306.83,1348.87L3306.83,1112.65ZM3318.41,1124.23L3318.41,1337.29L3525.62,1337.29L3498.85,1273.53L3504.81,1268.02C3521.2,1252.87 3531.47,1231.19 3531.47,1207.14C3531.47,1161.38 3494.32,1124.23 3448.56,1124.23L3318.41,1124.23Z"/>
                </g>
                <g transform="matrix(0.600325,0,0,0.909205,1586.32,1493.12)">
                    <g transform="matrix(163.017,0,0,107.636,3456.33,1583.59)">
                        <path d="M0.187,-0.371L0.294,-0.371C0.352,-0.371 0.394,-0.382 0.421,-0.405C0.448,-0.428 0.461,-0.462 0.461,-0.507C0.461,-0.552 0.447,-0.585 0.42,-0.605C0.393,-0.626 0.35,-0.636 0.289,-0.636L0.187,-0.636L0.187,-0.371ZM0.187,-0.295L0.187,0L0.097,0L0.097,-0.714L0.294,-0.714C0.382,-0.714 0.448,-0.697 0.49,-0.663C0.533,-0.63 0.554,-0.579 0.554,-0.511C0.554,-0.417 0.507,-0.353 0.411,-0.32L0.607,0L0.502,0L0.329,-0.295L0.187,-0.295Z" style="fill-rule:nonzero;"/>
                    </g>
                    <g transform="matrix(163.017,0,0,107.636,3552.85,1583.59)">
                        <path d="M0.313,0.01C0.233,0.01 0.17,-0.015 0.124,-0.063C0.078,-0.112 0.055,-0.179 0.055,-0.264C0.055,-0.35 0.076,-0.419 0.119,-0.469C0.162,-0.52 0.219,-0.546 0.292,-0.546C0.359,-0.546 0.413,-0.524 0.453,-0.481C0.493,-0.437 0.513,-0.378 0.513,-0.304L0.513,-0.251L0.146,-0.251C0.148,-0.19 0.163,-0.144 0.192,-0.112C0.222,-0.081 0.263,-0.065 0.317,-0.065C0.346,-0.065 0.373,-0.067 0.398,-0.073C0.424,-0.078 0.454,-0.087 0.489,-0.102L0.489,-0.025C0.459,-0.012 0.431,-0.003 0.405,0.002C0.379,0.007 0.348,0.01 0.313,0.01ZM0.291,-0.474C0.249,-0.474 0.216,-0.461 0.191,-0.434C0.167,-0.407 0.153,-0.369 0.148,-0.321L0.421,-0.321C0.42,-0.371 0.409,-0.409 0.386,-0.435C0.364,-0.461 0.332,-0.474 0.291,-0.474Z" style="fill-rule:nonzero;"/>
                    </g>
                    <g transform="matrix(163.017,0,0,107.636,3639.9,1583.59)">
                        <path d="M0.416,0L0.399,-0.076L0.395,-0.076C0.368,-0.043 0.342,-0.02 0.315,-0.008C0.289,0.004 0.255,0.01 0.215,0.01C0.162,0.01 0.121,-0.004 0.091,-0.032C0.061,-0.059 0.046,-0.098 0.046,-0.149C0.046,-0.258 0.132,-0.315 0.303,-0.32L0.394,-0.323L0.394,-0.355C0.394,-0.396 0.385,-0.426 0.368,-0.445C0.35,-0.464 0.322,-0.474 0.283,-0.474C0.255,-0.474 0.228,-0.47 0.203,-0.461C0.178,-0.453 0.154,-0.444 0.132,-0.433L0.105,-0.499C0.132,-0.513 0.161,-0.525 0.193,-0.533C0.225,-0.541 0.257,-0.545 0.288,-0.545C0.353,-0.545 0.401,-0.531 0.433,-0.502C0.464,-0.473 0.48,-0.428 0.48,-0.365L0.48,0L0.416,0ZM0.235,-0.061C0.284,-0.061 0.323,-0.074 0.351,-0.101C0.379,-0.127 0.393,-0.165 0.393,-0.214L0.393,-0.262L0.314,-0.259C0.252,-0.257 0.208,-0.247 0.179,-0.229C0.151,-0.212 0.137,-0.185 0.137,-0.148C0.137,-0.12 0.146,-0.098 0.163,-0.083C0.18,-0.069 0.204,-0.061 0.235,-0.061Z" style="fill-rule:nonzero;"/>
                    </g>
                    <g transform="matrix(163.017,0,0,107.636,3726.46,1583.59)">
                        <rect x="0.085" y="-0.76" width="0.088" height="0.76" style="fill-rule:nonzero;"/>
                    </g>
                    <g transform="matrix(163.017,0,0,107.636,3763.6,1583.59)">
                        <path d="M0.264,-0.062C0.276,-0.062 0.289,-0.063 0.304,-0.065C0.319,-0.068 0.331,-0.07 0.339,-0.073L0.339,-0.006C0.331,-0.002 0.318,0.001 0.301,0.005C0.284,0.008 0.267,0.01 0.249,0.01C0.144,0.01 0.092,-0.045 0.092,-0.156L0.092,-0.468L0.016,-0.468L0.016,-0.51L0.093,-0.545L0.128,-0.659L0.18,-0.659L0.18,-0.536L0.417,-0.536L0.457,-0.468L0.18,-0.468L0.18,-0.158C0.18,-0.127 0.188,-0.104 0.202,-0.087C0.217,-0.07 0.238,-0.062 0.264,-0.062Z" style="fill-rule:nonzero;"/>
                    </g>
                    <g transform="matrix(163.017,0,0,107.636,3819.97,1583.59)">
                        <path d="M0.001,-0.536L0.095,-0.536L0.211,-0.231C0.235,-0.165 0.25,-0.116 0.256,-0.085L0.26,-0.085C0.263,-0.097 0.269,-0.12 0.28,-0.153C0.29,-0.186 0.299,-0.212 0.306,-0.232L0.415,-0.536L0.51,-0.536L0.279,0.074C0.256,0.133 0.23,0.176 0.199,0.202C0.168,0.227 0.13,0.24 0.084,0.24C0.06,0.24 0.035,0.237 0.011,0.232L0.011,0.162C0.028,0.166 0.047,0.168 0.07,0.168C0.098,0.168 0.122,0.16 0.141,0.145C0.161,0.129 0.177,0.105 0.189,0.073L0.217,0.002L0.001,-0.536Z" style="fill-rule:nonzero;"/>
                    </g>
                </g>
                <g transform="matrix(0.600325,0,0,0.909205,1865.72,1493.12)">
                    <g transform="matrix(163.017,0,0,107.636,3456.33,1583.59)">
                        <path d="M0.275,0.01C0.205,0.01 0.151,-0.014 0.113,-0.063C0.074,-0.111 0.055,-0.179 0.055,-0.267C0.055,-0.355 0.074,-0.423 0.113,-0.472C0.152,-0.521 0.206,-0.546 0.276,-0.546C0.348,-0.546 0.403,-0.52 0.442,-0.467L0.448,-0.467C0.447,-0.473 0.446,-0.486 0.444,-0.506C0.443,-0.526 0.442,-0.539 0.442,-0.546L0.442,-0.76L0.53,-0.76L0.53,0L0.459,0L0.446,-0.072L0.442,-0.072C0.404,-0.017 0.349,0.01 0.275,0.01ZM0.289,-0.063C0.342,-0.063 0.381,-0.078 0.406,-0.107C0.431,-0.136 0.443,-0.184 0.443,-0.25L0.443,-0.266C0.443,-0.341 0.43,-0.394 0.406,-0.426C0.381,-0.457 0.341,-0.473 0.288,-0.473C0.243,-0.473 0.208,-0.455 0.183,-0.419C0.158,-0.383 0.146,-0.332 0.146,-0.265C0.146,-0.199 0.158,-0.148 0.183,-0.114C0.207,-0.08 0.243,-0.063 0.289,-0.063Z" style="fill-rule:nonzero;"/>
                    </g>
                    <g transform="matrix(163.017,0,0,107.636,3551.74,1583.59)">
                        <path d="M0.313,0.01C0.233,0.01 0.17,-0.015 0.124,-0.063C0.078,-0.112 0.055,-0.179 0.055,-0.264C0.055,-0.35 0.076,-0.419 0.119,-0.469C0.162,-0.52 0.219,-0.546 0.292,-0.546C0.359,-0.546 0.413,-0.524 0.453,-0.481C0.493,-0.437 0.513,-0.378 0.513,-0.304L0.513,-0.251L0.146,-0.251C0.148,-0.19 0.163,-0.144 0.192,-0.112C0.222,-0.081 0.263,-0.065 0.317,-0.065C0.346,-0.065 0.373,-0.067 0.398,-0.073C0.424,-0.078 0.454,-0.087 0.489,-0.102L0.489,-0.025C0.459,-0.012 0.431,-0.003 0.405,0.002C0.379,0.007 0.348,0.01 0.313,0.01ZM0.291,-0.474C0.249,-0.474 0.216,-0.461 0.191,-0.434C0.167,-0.407 0.153,-0.369 0.148,-0.321L0.421,-0.321C0.42,-0.371 0.409,-0.409 0.386,-0.435C0.364,-0.461 0.332,-0.474 0.291,-0.474Z" style="fill-rule:nonzero;"/>
                    </g>
                    <g transform="matrix(163.017,0,0,107.636,3638.78,1583.59)">
                        <path d="M0.434,-0.148C0.434,-0.098 0.415,-0.059 0.378,-0.031C0.34,-0.004 0.288,0.01 0.22,0.01C0.15,0.01 0.093,-0.001 0.052,-0.024L0.052,-0.104C0.111,-0.075 0.167,-0.061 0.222,-0.061C0.266,-0.061 0.299,-0.068 0.319,-0.083C0.339,-0.097 0.349,-0.116 0.349,-0.14C0.349,-0.161 0.339,-0.179 0.32,-0.194C0.301,-0.208 0.266,-0.225 0.217,-0.244C0.166,-0.264 0.131,-0.28 0.11,-0.294C0.09,-0.308 0.075,-0.324 0.065,-0.341C0.056,-0.358 0.051,-0.379 0.051,-0.404C0.051,-0.448 0.069,-0.482 0.104,-0.508C0.14,-0.533 0.189,-0.546 0.252,-0.546C0.313,-0.546 0.37,-0.534 0.423,-0.51L0.393,-0.44C0.339,-0.463 0.29,-0.474 0.246,-0.474C0.21,-0.474 0.182,-0.468 0.163,-0.457C0.144,-0.445 0.135,-0.429 0.135,-0.409C0.135,-0.39 0.143,-0.373 0.159,-0.361C0.175,-0.348 0.213,-0.33 0.273,-0.307C0.318,-0.291 0.351,-0.275 0.372,-0.261C0.393,-0.246 0.409,-0.23 0.419,-0.212C0.429,-0.194 0.434,-0.173 0.434,-0.148Z" style="fill-rule:nonzero;"/>
                    </g>
                    <g transform="matrix(163.017,0,0,107.636,3711.98,1583.59)">
                        <path d="M0.173,0L0.085,0L0.085,-0.536L0.173,-0.536L0.173,0ZM0.078,-0.681C0.078,-0.701 0.083,-0.715 0.093,-0.724C0.103,-0.732 0.115,-0.737 0.13,-0.737C0.144,-0.737 0.156,-0.732 0.166,-0.724C0.176,-0.715 0.181,-0.701 0.181,-0.681C0.181,-0.662 0.176,-0.648 0.166,-0.639C0.156,-0.63 0.144,-0.625 0.13,-0.625C0.115,-0.625 0.103,-0.63 0.093,-0.639C0.083,-0.648 0.078,-0.662 0.078,-0.681Z" style="fill-rule:nonzero;"/>
                    </g>
                    <g transform="matrix(163.017,0,0,107.636,3749.11,1583.59)">
                        <path d="M0.289,-0.062C0.343,-0.062 0.382,-0.077 0.407,-0.106C0.432,-0.135 0.444,-0.182 0.444,-0.246L0.444,-0.267C0.444,-0.339 0.431,-0.391 0.407,-0.423C0.382,-0.456 0.342,-0.472 0.287,-0.472C0.242,-0.472 0.207,-0.454 0.183,-0.419C0.158,-0.383 0.146,-0.332 0.146,-0.266C0.146,-0.2 0.158,-0.149 0.182,-0.114C0.206,-0.079 0.242,-0.062 0.289,-0.062ZM0.443,-0.005L0.446,-0.071L0.442,-0.071C0.406,-0.017 0.35,0.01 0.276,0.01C0.207,0.01 0.152,-0.014 0.114,-0.063C0.075,-0.111 0.055,-0.179 0.055,-0.267C0.055,-0.353 0.075,-0.421 0.114,-0.471C0.153,-0.521 0.207,-0.546 0.275,-0.546C0.347,-0.546 0.403,-0.519 0.443,-0.465L0.448,-0.465L0.46,-0.536L0.53,-0.536L0.53,0.009C0.53,0.086 0.51,0.143 0.471,0.182C0.433,0.221 0.372,0.24 0.29,0.24C0.212,0.24 0.148,0.229 0.097,0.206L0.097,0.125C0.149,0.153 0.215,0.167 0.295,0.167C0.34,0.167 0.377,0.154 0.403,0.127C0.43,0.1 0.443,0.063 0.443,0.016L0.443,-0.005Z" style="fill-rule:nonzero;"/>
                    </g>
                    <g transform="matrix(163.017,0,0,107.636,3841.82,1583.59)">
                        <path d="M0.45,0L0.45,-0.343C0.45,-0.386 0.441,-0.419 0.421,-0.44C0.402,-0.462 0.371,-0.472 0.33,-0.472C0.275,-0.472 0.235,-0.457 0.21,-0.427C0.185,-0.396 0.173,-0.347 0.173,-0.278L0.173,0L0.085,0L0.085,-0.536L0.156,-0.536L0.169,-0.463L0.174,-0.463C0.19,-0.489 0.214,-0.51 0.244,-0.524C0.274,-0.539 0.307,-0.546 0.343,-0.546C0.409,-0.546 0.457,-0.53 0.489,-0.498C0.521,-0.466 0.537,-0.417 0.537,-0.349L0.537,0L0.45,0Z" style="fill-rule:nonzero;"/>
                    </g>
                </g>
            </g>
        </g>
    </g>
</svg>
