<?xml version="1.0" encoding="UTF-8" standalone="no"?>
<!DOCTYPE svg PUBLIC "-//W3C//DTD SVG 1.1//EN" "http://www.w3.org/Graphics/SVG/1.1/DTD/svg11.dtd">
<svg width="100%" height="100%" viewBox="0 0 1498 769" version="1.1" xmlns="http://www.w3.org/2000/svg" xmlns:xlink="http://www.w3.org/1999/xlink" xml:space="preserve" xmlns:serif="http://www.serif.com/" style="fill-rule:evenodd;clip-rule:evenodd;stroke-linecap:square;stroke-miterlimit:1.5;">
    <g transform="matrix(1,0,0,1,-5927.25,-2691.82)">
        <g transform="matrix(1,0,0,1,5714.29,2545.71)">
            <g transform="matrix(0.444583,0,0,0.444583,611.914,85.0543)">
                <text x="154.288px" y="1454.4px" style="font-family:'OpenSans-Light', 'Open Sans', sans-serif;font-weight:300;font-size:179.944px;">Rely &amp; Pleasure</text>
            </g>
        </g>
        <g transform="matrix(1,0,0,1,5714.29,2545.71)">
            <g transform="matrix(0.444583,0,0,0.444583,765.913,-0.353637)">
                <text x="154.288px" y="1454.4px" style="font-family:'OpenSans-Regular', 'Open Sans', sans-serif;font-size:44.986px;">DESIGN / VALUE CREATING</text>
            </g>
        </g>
        <g transform="matrix(1,0,0,1,5714.29,2545.71)">
            <g transform="matrix(0.444583,0,0,0.444583,730.23,-485.993)">
                <text x="154.288px" y="1454.4px" style="font-family:'OpenSans-Regular', 'Open Sans', sans-serif;font-size:44.986px;">VALUE OF ZIROOM / VALUE FRAME</text>
            </g>
        </g>
        <g transform="matrix(1,0,0,1,5714.29,2545.71)">
            <g transform="matrix(0.444583,0,0,0.444583,696.494,202.536)">
                <text x="154.288px" y="1454.4px" style="font-family:'OpenSans-Regular', 'Open Sans', sans-serif;font-size:44.986px;">TAGLINE OF ZIROOM / VALUE DELIVERING</text>
            </g>
        </g>
        <g transform="matrix(1,0,0,1,5714.29,2545.71)">
            <g transform="matrix(0.236154,0,0,0.236154,174.01,-110.953)">
                <text x="154.288px" y="1454.4px" style="font-family:'OpenSans-Light', 'Open Sans', sans-serif;font-weight:300;font-size:169.381px;">Customer First</text>
            </g>
        </g>
        <g transform="matrix(1,0,0,1,5714.29,2545.71)">
            <g transform="matrix(0.236154,0,0,0.236154,686.357,561.35)">
                <text x="154.288px" y="1454.4px" style="font-family:'OpenSans-Light', 'Open Sans', sans-serif;font-weight:300;font-size:169.381px;">Create &amp; Enjoy Quality Life</text>
            </g>
        </g>
        <g transform="matrix(1,0,0,1,5714.29,2545.71)">
            <g transform="matrix(0.236154,0,0,0.236154,441,-4.52105)">
                <text x="154.288px" y="1454.4px" style="font-family:'OpenSans-Light', 'Open Sans', sans-serif;font-weight:300;font-size:169.381px;">Cooperation to Win</text>
            </g>
        </g>
        <g transform="matrix(1,0,0,1,5714.29,2545.71)">
            <g transform="matrix(1.41169,0,0,0.680907,-3281.36,-1536.62)">
                <g transform="matrix(0.708369,-0,-0,1.46863,2475.27,2471.3)">
                    <path d="M518.68,111.417C518.653,109.761 517.288,108.439 515.632,108.465C513.977,108.492 512.654,109.857 512.68,111.513C512.707,113.168 514.072,114.491 515.728,114.464C517.383,114.438 518.706,113.073 518.68,111.417Z" style="fill:rgb(255,150,30);fill-opacity:0.5;"/>
                    <path d="M749.987,462.178C750.013,463.833 748.691,465.199 747.035,465.225C745.38,465.252 744.014,463.929 743.988,462.274C743.961,460.618 745.284,459.252 746.939,459.226C748.595,459.2 749.96,460.522 749.987,462.178Z" style="fill:rgb(255,150,30);fill-opacity:0.5;"/>
                    <path d="M515.709,113.265C520.434,260.814 742.234,312.877 746.959,460.426" style="fill:none;stroke:rgb(255,150,30);stroke-opacity:0.5;stroke-width:2px;"/>
                </g>
            </g>
        </g>
        <g transform="matrix(1,0,0,1,5714.29,2545.71)">
            <g transform="matrix(1.89031,0,0,0.478398,-4719.35,-897.798)">
                <g transform="matrix(0.529013,-0,-0,2.09031,2609.26,2182.08)">
                    <path d="M440.365,217.37C440.258,215.717 438.83,214.463 437.178,214.569C435.525,214.676 434.271,216.104 434.377,217.757C434.484,219.409 435.912,220.664 437.564,220.557C439.217,220.45 440.472,219.022 440.365,217.37Z" style="fill:rgb(255,150,30);fill-opacity:0.5;"/>
                    <path d="M749.903,462.099C749.974,463.753 748.689,465.154 747.035,465.225C745.381,465.297 743.98,464.012 743.909,462.357C743.837,460.703 745.122,459.302 746.777,459.231C748.431,459.16 749.832,460.445 749.903,462.099Z" style="fill:rgb(255,150,30);fill-opacity:0.5;"/>
                    <path d="M437.487,219.359C448.283,302.883 737.982,358.1 746.828,460.43" style="fill:none;stroke:rgb(255,150,30);stroke-opacity:0.5;stroke-width:2px;"/>
                </g>
            </g>
        </g>
        <g transform="matrix(1,0,0,1,5714.29,2545.71)">
            <g transform="matrix(-1.91489,0,0,0.478398,6713.19,-897.798)">
                <g transform="matrix(-0.522223,0,0,2.09031,3394.57,2182.08)">
                    <path d="M1063.72,217.759C1063.83,216.107 1062.57,214.678 1060.92,214.569C1059.27,214.461 1057.84,215.715 1057.73,217.367C1057.62,219.019 1058.88,220.448 1060.53,220.557C1062.18,220.665 1063.61,219.411 1063.72,217.759Z" style="fill:rgb(255,150,30);fill-opacity:0.5;"/>
                    <path d="M750.163,462.359C750.091,464.013 748.689,465.298 747.035,465.225C745.381,465.153 744.097,463.751 744.169,462.097C744.241,460.443 745.643,459.159 747.297,459.231C748.951,459.303 750.235,460.705 750.163,462.359Z" style="fill:rgb(255,150,30);fill-opacity:0.5;"/>
                    <path d="M1060.61,219.359C1049.67,302.883 756.206,358.1 747.245,460.43" style="fill:none;stroke:rgb(255,150,30);stroke-opacity:0.5;stroke-width:2px;"/>
                </g>
            </g>
        </g>
        <g transform="matrix(1,0,0,1,5714.29,2545.71)">
            <g transform="matrix(3.78063,0,0,0.680907,-10398.7,-1536.62)">
                <g transform="matrix(0.264506,-0,-0,1.46863,2806.85,2471.3)">
                    <path d="M130.445,111.335C130.375,109.68 128.974,108.395 127.32,108.465C125.666,108.536 124.38,109.936 124.451,111.59C124.521,113.245 125.922,114.53 127.576,114.46C129.23,114.389 130.516,112.989 130.445,111.335Z" style="fill:rgb(255,150,30);fill-opacity:0.5;"/>
                    <path d="M749.904,462.1C749.975,463.754 748.689,465.155 747.035,465.225C745.381,465.296 743.98,464.01 743.91,462.356C743.839,460.702 745.125,459.301 746.779,459.231C748.433,459.16 749.834,460.446 749.904,462.1Z" style="fill:rgb(255,150,30);fill-opacity:0.5;"/>
                    <path d="M127.525,113.261C140.169,260.814 734.187,312.876 746.83,460.43" style="fill:none;stroke:rgb(255,150,30);stroke-opacity:0.5;stroke-width:2px;"/>
                </g>
            </g>
        </g>
        <g transform="matrix(1,0,0,1,5714.29,2545.71)">
            <g transform="matrix(-0.29334,0,0,0.680907,1841.32,-1536.62)">
                <g transform="matrix(-3.40902,0,0,1.46863,5551.1,2471.3)">
                    <path d="M798.109,111.475C798.114,109.819 796.775,108.471 795.119,108.465C793.463,108.46 792.114,109.8 792.109,111.455C792.104,113.111 793.443,114.46 795.099,114.465C796.755,114.471 798.103,113.131 798.109,111.475Z" style="fill:rgb(255,150,30);fill-opacity:0.5;"/>
                    <path d="M750.045,462.235C750.04,463.891 748.691,465.231 747.035,465.225C745.379,465.22 744.04,463.871 744.045,462.215C744.051,460.56 745.399,459.22 747.055,459.225C748.711,459.231 750.051,460.58 750.045,462.235Z" style="fill:rgb(255,150,30);fill-opacity:0.5;"/>
                    <path d="M795.103,113.265C794.121,260.814 748.033,312.877 747.051,460.425" style="fill:none;stroke:rgb(255,150,30);stroke-opacity:0.5;stroke-width:2px;"/>
                </g>
            </g>
        </g>
        <g transform="matrix(1,0,0,1,5714.29,2545.71)">
            <g transform="matrix(-4.06095,0,0,0.680907,13160.9,-1536.62)">
                <g transform="matrix(-0.246248,0,0,1.46863,3188.41,2471.3)">
                    <path d="M1415.56,111.599C1415.64,109.945 1414.35,108.541 1412.7,108.465C1411.05,108.389 1409.64,109.671 1409.57,111.325C1409.49,112.979 1410.77,114.383 1412.42,114.459C1414.08,114.535 1415.48,113.253 1415.56,111.599Z" style="fill:rgb(255,150,30);fill-opacity:0.5;"/>
                    <path d="M750.169,462.366C750.094,464.02 748.689,465.301 747.035,465.225C745.381,465.149 744.1,463.745 744.176,462.091C744.252,460.437 745.656,459.156 747.31,459.232C748.964,459.307 750.245,460.712 750.169,462.366Z" style="fill:rgb(255,150,30);fill-opacity:0.5;"/>
                    <path d="M1412.48,113.26C1398.9,260.814 760.834,312.876 747.255,460.43" style="fill:none;stroke:rgb(255,150,30);stroke-opacity:0.5;stroke-width:2px;"/>
                </g>
            </g>
        </g>
        <g transform="matrix(1,0,0,1,5714.29,2545.71)">
            <g transform="matrix(0.236154,0,0,0.236154,1120.76,-10.9273)">
                <text x="154.288px" y="1454.4px" style="font-family:'OpenSans-Light', 'Open Sans', sans-serif;font-weight:300;font-size:169.381px;">Quality Key</text>
            </g>
        </g>
        <g transform="matrix(1,0,0,1,5714.29,2545.71)">
            <g transform="matrix(0.236154,0,0,0.236154,618.289,-110.953)">
                <text x="154.288px" y="1454.4px" style="font-family:'OpenSans-Light', 'Open Sans', sans-serif;font-weight:300;font-size:169.381px;">Ownership &amp; Integrity</text>
            </g>
        </g>
        <g transform="matrix(1,0,0,1,5714.29,2545.71)">
            <g transform="matrix(0.236154,0,0,0.236154,1192.45,-110.953)">
                <text x="154.288px" y="1454.4px" style="font-family:'OpenSans-Light', 'Open Sans', sans-serif;font-weight:300;font-size:169.381px;">Go Beyond with Innovation</text>
            </g>
        </g>
        <g transform="matrix(1,0,0,1,5714.29,2545.71)">
            <g transform="matrix(0.618703,0,0,0.618703,-874.749,-1185.91)">
                <g transform="matrix(1.61628,-0,-0,1.61628,1758.06,2152.91)">
                    <path d="M751.656,614.604C751.656,612.948 750.312,611.604 748.656,611.604C747,611.604 745.656,612.948 745.656,614.604C745.656,616.26 747,617.604 748.656,617.604C750.312,617.604 751.656,616.26 751.656,614.604Z" style="fill:rgb(255,150,30);fill-opacity:0.5;"/>
                    <path d="M751.656,657.109C751.656,658.765 750.312,660.109 748.656,660.109C747,660.109 745.656,658.765 745.656,657.109C745.656,655.453 747,654.109 748.656,654.109C750.312,654.109 751.656,655.453 751.656,657.109Z" style="fill:rgb(255,150,30);fill-opacity:0.5;"/>
                    <path d="M748.656,616.404L748.656,655.309" style="fill:none;stroke:rgb(255,150,30);stroke-opacity:0.5;stroke-width:2px;"/>
                </g>
            </g>
        </g>
    </g>
</svg>
